<svg width="200px" height="200px" viewBox="0 0 200 200" version="1.1" xmlns="http://www.w3.org/2000/svg">
  <path fill="#00c853" d="m 20,0 h 160 c 11.08,0 20,8.92 20,20 v 160 c 0,11.08 -8.92,20 -20,20 H 20 C 8.92,200 0,191.08 0,180 V 20 C 0,8.92 8.92,0 20,0 Z" />
  <path fill="#ffffff" d="M 88.472307,150.56019 106.03128,50.793316 h 49.16511 q 11.65277,0 16.76084,3.990675 5.10806,3.990675 5.10806,12.291279 0,12.77016 -5.74657,20.432256 -5.58695,7.502469 -12.61053,9.258366 l -0.15963,0.957762 q 7.82172,1.436643 11.01426,6.544706 3.35217,5.10806 3.35217,12.4509 0,8.93911 -3.35217,16.76084 -3.19254,7.66209 -9.89687,12.4509 -6.54471,4.62919 -16.60121,4.62919 z M 99.805817,57.976531 32.283602,50.793316 H 101.08284 Z M 97.251787,73.300723 29.569943,66.117508 H 98.369177 Z M 129.8157,87.507526 h 9.41799 q 4.15031,0 5.74657,-3.19254 1.59627,-3.19254 1.59627,-7.183215 0,-2.075151 -0.95776,-3.19254 -0.95776,-1.277016 -3.51179,-1.277016 h -9.57762 z M 94.538127,88.624915 26.856284,81.4417 H 95.815147 Z M 91.824467,103.9491 24.142625,96.765892 h 68.958862 z m 30.967643,23.14592 h 11.8124 q 4.30993,0 6.22545,-3.35217 1.91553,-3.35217 1.91553,-7.82172 0,-2.23478 -1.11739,-3.67142 -1.11739,-1.43665 -3.99068,-1.43665 H 125.6654 Z m -33.681293,-7.82173 -67.681851,-7.18321 h 68.958861 z m -2.71366,15.3242 -67.68185,-7.18322 h 68.95886 z m -2.71366,15.48382 -67.681849,-7.18322 h 68.958859 z" />
</svg>
