<svg width="686.57px" height="200px" viewBox="0 0 686.5683 200" version="1.1" xmlns="http://www.w3.org/2000/svg">
  <path style="fill:#00c853" d="m 20,0 h 160 c 11.08,0 20,8.92 20,20 v 160 c 0,11.08 -8.92,20 -20,20 H 20 C 8.92,200 0,191.08 0,180 V 20 C 0,8.92 8.92,0 20,0 Z" />
  <path fill="#ffffff" d="M 88.472305,150.56019 106.03128,50.793316 h 49.16511 q 11.65277,0 16.76084,3.990675 5.10806,3.990675 5.10806,12.291279 0,12.77016 -5.74657,20.432256 -5.58695,7.502469 -12.61053,9.258366 l -0.15963,0.957762 q 7.82172,1.436643 11.01426,6.544706 3.35217,5.10806 3.35217,12.4509 0,8.93911 -3.35217,16.76084 -3.19254,7.66209 -9.89687,12.4509 -6.54471,4.62919 -16.60121,4.62919 z M 99.805818,57.976531 32.283602,50.793316 H 101.08284 Z M 97.251788,73.300723 29.569943,66.117508 H 98.369178 Z M 129.8157,87.507526 h 9.41799 q 4.15031,0 5.74657,-3.19254 1.59627,-3.19254 1.59627,-7.183215 0,-2.075151 -0.95776,-3.19254 -0.95776,-1.277016 -3.51179,-1.277016 h -9.57762 z M 94.538128,88.624915 26.856284,81.4417 H 95.815148 Z M 91.824468,103.9491 24.142625,96.765892 h 68.958863 z m 30.967642,23.14592 h 11.8124 q 4.30993,0 6.22545,-3.35217 1.91553,-3.35217 1.91553,-7.82172 0,-2.23478 -1.11739,-3.67142 -1.11739,-1.43665 -3.99068,-1.43665 H 125.6654 Z m -33.681297,-7.82173 -67.681847,-7.18321 h 68.958862 z m -2.713659,15.3242 -67.681847,-7.18322 H 87.67417 Z m -2.713659,15.48382 -67.681847,-7.18322 h 68.958863 z"/>
  <path fill="#00c853" aria-label="BAYLYQ" d="m 267.79071,61.838459 q 15.13412,0 22.85993,4.23332 7.72581,4.23332 7.72581,14.922453 0,6.455813 -3.06916,10.900799 -2.96332,4.444986 -8.57247,5.397483 v 0.529165 q 3.80998,0.740831 6.87914,2.645821 3.06916,1.905 4.86832,5.50334 1.79916,3.59832 1.79916,9.52497 0,10.2658 -7.40831,16.08661 -7.40831,5.82082 -20.31994,5.82082 H 244.29578 V 61.838459 Z m 1.79916,29.950739 q 6.98498,0 9.6308,-2.222493 2.75166,-2.222493 2.75166,-6.455813 0,-4.339153 -3.17499,-6.244147 -3.17499,-1.904994 -10.05413,-1.904994 h -8.46664 v 16.827447 z m -9.3133,12.699972 v 19.68494 h 10.47746 q 7.19665,0 10.05414,-2.75166 2.85749,-2.85749 2.85749,-7.51414 0,-4.23332 -2.96332,-6.77331 -2.8575,-2.64583 -10.47747,-2.64583 z m 101.38811,32.91407 -5.50332,-17.99161 h -27.51658 l -5.50331,17.99161 H 305.89069 L 332.5606,61.52096 h 19.57911 l 26.77575,75.88228 z M 346.84806,88.402542 q -0.52917,-1.799161 -1.37583,-4.550819 -0.84667,-2.751658 -1.69333,-5.609149 -0.84666,-2.857491 -1.37583,-4.974151 -0.52916,2.11666 -1.48166,5.29165 -0.84666,3.069157 -1.69333,5.926648 -0.74083,2.751658 -1.16416,3.915821 l -5.39748,17.568298 h 19.68493 z m 58.73742,4.550819 15.76912,-31.114902 h 17.25077 l -25.08242,46.143201 v 29.42158 H 397.648 V 108.51083 L 372.56558,61.838459 h 17.35661 z m 42.54493,44.449879 V 61.838459 h 15.98078 v 62.335651 h 30.69157 v 13.22913 z m 80.11556,-44.449879 15.76912,-31.114902 h 17.25078 l -25.08242,46.143201 v 29.42158 H 520.3085 V 108.51083 L 495.22607,61.838459 h 17.35662 z m 109.00802,6.561646 q 0,12.699973 -4.55082,22.013283 -4.55082,9.20747 -14.07579,13.54662 l 18.20327,20.31994 h -20.5316 l -13.86412,-16.93328 h -1.16416 q -12.27663,0 -20.31994,-4.86832 -7.93748,-4.86832 -11.8533,-13.65246 -3.80998,-8.78414 -3.80998,-20.531616 0,-11.747463 3.80998,-20.425769 3.91582,-8.678306 11.8533,-13.440791 8.04331,-4.868318 20.42577,-4.868318 12.27663,0 20.2141,4.868318 7.93748,4.762485 11.74746,13.546624 3.91583,8.678306 3.91583,20.425769 z m -55.139,0 q 0,11.853313 4.55082,18.732453 4.55082,6.77332 14.60496,6.77332 10.2658,0 14.71078,-6.77332 4.44499,-6.87914 4.44499,-18.732453 0,-11.959129 -4.44499,-18.732441 -4.44498,-6.773312 -14.60495,-6.773312 -10.15997,0 -14.71079,6.773312 -4.55082,6.773312 -4.55082,18.732441 z"/>
</svg>
